<svg width="71" height="70" viewBox="0 0 71 70" fill="none" xmlns="http://www.w3.org/2000/svg">
<g id="design_services_24dp_FFFFFF_FILL0_wght400_GRAD0_opsz24 1">
<path id="Vector" d="M26.1666 31.9375L32.4375 25.5938L28.3541 21.4375L25.1458 24.6458L21.0625 20.5625L24.1979 17.3542L20.9166 14.0729L14.5729 20.4167L26.1666 31.9375ZM50.0833 55.9271L56.4271 49.5833L53.1458 46.3021L49.9375 49.4375L45.8541 45.3542L48.9896 42.1458L44.8333 38.0625L38.5625 44.3333L50.0833 55.9271ZM21.6458 61.25H9.24998V48.8542L22.0104 36.0938L6.33331 20.4167L20.9166 5.83334L36.6666 21.5833L47.6771 10.5C48.2604 9.91668 48.9166 9.47918 49.6458 9.18751C50.375 8.89584 51.1284 8.75001 51.9062 8.75001C52.684 8.75001 53.4375 8.89584 54.1666 9.18751C54.8958 9.47918 55.5521 9.91668 56.1354 10.5L60 14.4375C60.5833 15.0208 61.0208 15.6771 61.3125 16.4063C61.6041 17.1354 61.75 17.8889 61.75 18.6667C61.75 19.4445 61.6041 20.1858 61.3125 20.8906C61.0208 21.5955 60.5833 22.2396 60 22.8229L48.9896 33.9063L64.6666 49.5833L50.0833 64.1667L34.4062 48.4896L21.6458 61.25ZM15.0833 55.4167H19.1666L47.75 26.9063L43.5937 22.75L15.0833 51.3333V55.4167ZM45.7083 24.8646L43.5937 22.75L47.75 26.9063L45.7083 24.8646Z" fill="#01579B"/>
</g>
</svg>
