<svg width="70" height="70" viewBox="0 0 70 70" fill="none" xmlns="http://www.w3.org/2000/svg">
<g id="videocam_24dp_FFFFFF_FILL0_wght400_GRAD0_opsz24 1">
<path id="Vector" d="M11.6666 58.3333C10.0625 58.3333 8.68922 57.7621 7.54685 56.6198C6.40449 55.4774 5.83331 54.1042 5.83331 52.5V17.5C5.83331 15.8958 6.40449 14.5226 7.54685 13.3802C8.68922 12.2378 10.0625 11.6667 11.6666 11.6667H46.6666C48.2708 11.6667 49.6441 12.2378 50.7864 13.3802C51.9288 14.5226 52.5 15.8958 52.5 17.5V30.625L64.1666 18.9583V51.0417L52.5 39.375V52.5C52.5 54.1042 51.9288 55.4774 50.7864 56.6198C49.6441 57.7621 48.2708 58.3333 46.6666 58.3333H11.6666ZM11.6666 52.5H46.6666V17.5H11.6666V52.5Z" fill="#C62828"/>
</g>
</svg>
